<svg width="152" height="117" viewBox="0 0 152 117" fill="none" xmlns="http://www.w3.org/2000/svg">
<path d="M10.3479 104.74V101.492H11.5099V108.968H10.3479V105.678H7.86988V104.74H10.3479ZM7.99588 108.492C7.29588 108.24 6.68454 107.867 6.16188 107.372C5.63921 106.877 5.24254 106.308 4.97188 105.664C4.70121 106.392 4.29054 107.036 3.73988 107.596C3.18921 108.156 2.54521 108.576 1.80788 108.856L1.20588 107.946C1.67254 107.778 2.09721 107.549 2.47987 107.26C2.87188 106.971 3.20788 106.644 3.48788 106.28C3.76788 105.907 3.98254 105.505 4.13188 105.076C4.29054 104.647 4.36988 104.208 4.36988 103.76V103.326H1.56988V102.402H8.27588V103.326H5.51788V103.76C5.51788 104.161 5.59254 104.558 5.74188 104.95C5.89121 105.342 6.09654 105.711 6.35788 106.056C6.62854 106.392 6.95054 106.695 7.32388 106.966C7.69721 107.227 8.11254 107.437 8.56988 107.596L7.99588 108.492ZM7.36588 109.36C8.00988 109.36 8.58854 109.411 9.10188 109.514C9.61521 109.617 10.0539 109.771 10.4179 109.976C10.7819 110.172 11.0572 110.415 11.2439 110.704C11.4399 110.993 11.5379 111.325 11.5379 111.698C11.5379 112.071 11.4399 112.403 11.2439 112.692C11.0572 112.981 10.7819 113.224 10.4179 113.42C10.0539 113.625 9.61521 113.779 9.10188 113.882C8.58854 113.985 8.00988 114.036 7.36588 114.036C6.72188 114.036 6.13854 113.985 5.61588 113.882C5.10254 113.779 4.66388 113.625 4.29988 113.42C3.94521 113.224 3.66988 112.981 3.47388 112.692C3.27788 112.403 3.17988 112.071 3.17988 111.698C3.17988 111.325 3.27788 110.993 3.47388 110.704C3.66988 110.415 3.94521 110.172 4.29988 109.976C4.66388 109.771 5.10254 109.617 5.61588 109.514C6.13854 109.411 6.72188 109.36 7.36588 109.36ZM7.36588 113.14C8.32721 113.14 9.07388 113.014 9.60588 112.762C10.1379 112.51 10.4039 112.155 10.4039 111.698C10.4039 111.241 10.1379 110.886 9.60588 110.634C9.07388 110.373 8.32721 110.242 7.36588 110.242C6.40454 110.242 5.65788 110.373 5.12588 110.634C4.59388 110.886 4.32788 111.241 4.32788 111.698C4.32788 112.155 4.59388 112.51 5.12588 112.762C5.65788 113.014 6.40454 113.14 7.36588 113.14ZM25.4248 111.488V112.426H14.0428V111.488H19.1388V108.786H15.3868V102.374H16.5208V104.614H22.9328V102.374H24.0528V108.786H20.3008V111.488H25.4248ZM16.5208 107.862H22.9328V105.552H16.5208V107.862ZM35.7137 102.654H28.3497V101.842H36.8477V104.46H29.5117V105.538H37.0717V106.364H28.3777V103.676H35.7137V102.654ZM38.3037 107.316V108.184H26.9217V107.316H38.3037ZM29.4417 113.042H37.2817V113.868H28.3077V111.082H35.7557V110.032H28.2797V109.206H36.8897V111.88H29.4417V113.042ZM52.8015 105.818H44.4295V101.674H45.5635V102.864H51.6675V101.674H52.8015V105.818ZM51.6675 103.732H45.5635V104.936H51.6675V103.732ZM49.1755 107.764V108.996H52.8295V111.796H45.4515V113.014H53.2075V113.896H44.3315V110.956H51.6955V109.864H44.2895V108.996H48.0275V107.764H42.9175V106.84H54.2855V107.764H49.1755ZM66.1424 101.464V114.05H64.9944V107.246H62.6004V106.308H64.9944V101.464H66.1424ZM57.4064 110.074C57.9384 110.074 58.4377 110.069 58.9044 110.06C59.3804 110.051 59.833 110.032 60.2624 110.004C60.701 109.967 61.135 109.925 61.5644 109.878C61.9937 109.822 62.4324 109.752 62.8804 109.668L62.9924 110.62C62.5164 110.704 62.0544 110.774 61.6064 110.83C61.1677 110.877 60.715 110.919 60.2484 110.956C59.791 110.984 59.315 111.003 58.8204 111.012C58.335 111.021 57.8077 111.026 57.2384 111.026H56.2724V106.112H60.7384V103.578H56.2444V102.64H61.8584V107.036H57.4064V110.074ZM80.0853 111.474V112.426H68.6753V111.474H73.7853V108.856C73.1973 108.819 72.6606 108.716 72.1753 108.548C71.6899 108.371 71.2699 108.142 70.9153 107.862C70.5606 107.573 70.2853 107.237 70.0893 106.854C69.8933 106.471 69.7953 106.051 69.7953 105.594C69.7953 105.09 69.9073 104.637 70.1313 104.236C70.3646 103.835 70.6819 103.489 71.0833 103.2C71.4939 102.911 71.9793 102.691 72.5393 102.542C73.0993 102.383 73.7106 102.304 74.3733 102.304C75.0359 102.304 75.6426 102.383 76.1933 102.542C76.7533 102.691 77.2339 102.911 77.6353 103.2C78.0459 103.489 78.3633 103.835 78.5873 104.236C78.8113 104.637 78.9233 105.09 78.9233 105.594C78.9233 106.051 78.8253 106.471 78.6293 106.854C78.4333 107.237 78.1579 107.573 77.8033 107.862C77.4579 108.142 77.0426 108.371 76.5573 108.548C76.0719 108.716 75.5353 108.819 74.9473 108.856V111.474H80.0853ZM70.9013 105.594C70.9013 105.958 70.9853 106.285 71.1533 106.574C71.3306 106.863 71.5733 107.115 71.8813 107.33C72.1893 107.535 72.5533 107.694 72.9733 107.806C73.4026 107.918 73.8693 107.974 74.3733 107.974C74.8773 107.974 75.3393 107.918 75.7593 107.806C76.1793 107.694 76.5433 107.535 76.8513 107.33C77.1593 107.115 77.3973 106.863 77.5653 106.574C77.7426 106.285 77.8313 105.958 77.8313 105.594C77.8313 105.23 77.7426 104.903 77.5653 104.614C77.3973 104.325 77.1593 104.077 76.8513 103.872C76.5433 103.657 76.1793 103.494 75.7593 103.382C75.3393 103.27 74.8773 103.214 74.3733 103.214C73.8693 103.214 73.4026 103.27 72.9733 103.382C72.5533 103.494 72.1893 103.657 71.8813 103.872C71.5733 104.077 71.3306 104.325 71.1533 104.614C70.9853 104.903 70.9013 105.23 70.9013 105.594ZM90.4302 103.676H82.7722V102.738H91.5782V103.984C91.5782 104.376 91.5735 104.782 91.5642 105.202C91.5642 105.613 91.5502 106.056 91.5222 106.532C91.4942 106.999 91.4475 107.503 91.3822 108.044C91.3168 108.576 91.2235 109.159 91.1022 109.794L89.9542 109.668C90.1968 108.473 90.3368 107.414 90.3742 106.49C90.4115 105.566 90.4302 104.731 90.4302 103.984V103.676ZM92.9362 111.334V112.272H81.5822V111.334H85.9922V106.84H87.1402V111.334H92.9362ZM107.882 108.66H106.734V101.492H107.882V108.66ZM101.134 108.072C100.658 108.072 100.219 108.002 99.8179 107.862C99.4259 107.722 99.0853 107.521 98.7959 107.26C98.5066 106.999 98.2779 106.691 98.1099 106.336C97.9513 105.972 97.8719 105.575 97.8719 105.146C97.8719 104.707 97.9513 104.311 98.1099 103.956C98.2779 103.601 98.5066 103.293 98.7959 103.032C99.0853 102.771 99.4259 102.57 99.8179 102.43C100.219 102.29 100.658 102.22 101.134 102.22C101.61 102.22 102.049 102.29 102.45 102.43C102.851 102.57 103.197 102.771 103.486 103.032C103.785 103.293 104.013 103.601 104.172 103.956C104.34 104.311 104.424 104.707 104.424 105.146C104.424 105.575 104.34 105.972 104.172 106.336C104.013 106.691 103.785 106.999 103.486 107.26C103.197 107.521 102.851 107.722 102.45 107.862C102.049 108.002 101.61 108.072 101.134 108.072ZM101.134 103.172C100.826 103.172 100.537 103.223 100.266 103.326C100.005 103.419 99.7806 103.555 99.5939 103.732C99.4073 103.9 99.2579 104.105 99.1459 104.348C99.0433 104.591 98.9919 104.857 98.9919 105.146C98.9919 105.435 99.0433 105.701 99.1459 105.944C99.2579 106.187 99.4073 106.397 99.5939 106.574C99.7806 106.742 100.005 106.877 100.266 106.98C100.537 107.073 100.826 107.12 101.134 107.12C101.442 107.12 101.727 107.073 101.988 106.98C102.259 106.877 102.492 106.742 102.688 106.574C102.884 106.397 103.033 106.187 103.136 105.944C103.248 105.701 103.304 105.435 103.304 105.146C103.304 104.857 103.248 104.591 103.136 104.348C103.033 104.105 102.884 103.9 102.688 103.732C102.492 103.555 102.259 103.419 101.988 103.326C101.727 103.223 101.442 103.172 101.134 103.172ZM106.482 109.878C106.482 110.205 106.538 110.527 106.65 110.844C106.762 111.161 106.925 111.46 107.14 111.74C107.355 112.011 107.616 112.258 107.924 112.482C108.241 112.697 108.601 112.869 109.002 113L108.428 113.868C107.812 113.644 107.289 113.327 106.86 112.916C106.44 112.505 106.123 112.034 105.908 111.502C105.712 112.015 105.423 112.496 105.04 112.944C104.657 113.383 104.172 113.728 103.584 113.98C102.968 113.737 102.469 113.406 102.086 112.986C101.713 112.557 101.433 112.076 101.246 111.544C101.022 112.048 100.7 112.505 100.28 112.916C99.8599 113.327 99.3559 113.644 98.7679 113.868L98.1939 113C98.5859 112.86 98.9359 112.678 99.2439 112.454C99.5613 112.221 99.8273 111.964 100.042 111.684C100.266 111.404 100.434 111.11 100.546 110.802C100.658 110.494 100.714 110.186 100.714 109.878V109.206H101.82V109.878C101.82 110.438 101.96 110.989 102.24 111.53C102.529 112.071 102.968 112.515 103.556 112.86C103.855 112.673 104.116 112.459 104.34 112.216C104.573 111.973 104.765 111.721 104.914 111.46C105.063 111.189 105.175 110.919 105.25 110.648C105.325 110.377 105.362 110.121 105.362 109.878V109.206H106.482V109.878ZM120.747 106.322C120.262 106.247 119.786 106.131 119.319 105.972C118.852 105.813 118.414 105.622 118.003 105.398C117.602 105.165 117.238 104.899 116.911 104.6C116.594 104.301 116.337 103.979 116.141 103.634C115.945 103.979 115.684 104.301 115.357 104.6C115.04 104.899 114.676 105.165 114.265 105.398C113.864 105.622 113.43 105.813 112.963 105.972C112.496 106.131 112.016 106.247 111.521 106.322L111.101 105.398C111.661 105.333 112.207 105.202 112.739 105.006C113.28 104.81 113.756 104.572 114.167 104.292C114.587 104.003 114.923 103.681 115.175 103.326C115.427 102.962 115.553 102.579 115.553 102.178V101.618H116.729V102.178C116.729 102.561 116.855 102.934 117.107 103.298C117.359 103.653 117.69 103.975 118.101 104.264C118.521 104.553 118.997 104.801 119.529 105.006C120.061 105.202 120.607 105.333 121.167 105.398L120.747 106.322ZM121.811 107.204V108.128H110.443V107.204H121.811ZM119.193 108.996H120.327V113.868H111.885V108.996H113.019V110.466H119.193V108.996ZM119.193 111.348H113.019V112.944H119.193V111.348ZM133.626 101.478V114.022H132.478V101.478H133.626ZM125.268 109.808C126.229 109.808 127.195 109.766 128.166 109.682C129.136 109.589 130.144 109.435 131.19 109.22L131.316 110.2C130.214 110.424 129.164 110.578 128.166 110.662C127.176 110.746 126.173 110.788 125.156 110.788H124.12V102.696H125.268V109.808ZM147.947 107.386H145.875V114.064H144.727V101.478H145.875V106.434H147.947V107.386ZM137.895 109.948C138.455 109.948 138.977 109.943 139.463 109.934C139.957 109.915 140.429 109.892 140.877 109.864C141.334 109.836 141.782 109.794 142.221 109.738C142.659 109.682 143.103 109.612 143.551 109.528L143.677 110.48C143.201 110.573 142.734 110.653 142.277 110.718C141.819 110.774 141.353 110.821 140.877 110.858C140.401 110.886 139.906 110.905 139.393 110.914C138.879 110.923 138.329 110.928 137.741 110.928H136.747V102.682H142.585V103.634H137.895V109.948ZM148.94 111.88H150.214V113.196H148.94V111.88Z" fill="#3D3D3D"/>
<g clip-path="url(#clip0_290_1155)">
<path d="M101.667 38C101.667 59 76 77 76 77C76 77 50.3334 59 50.3334 38C50.3334 30.8392 53.0375 23.9716 57.851 18.9081C62.6644 13.8446 69.1928 11 76 11C82.8073 11 89.3357 13.8446 94.1491 18.9081C98.9625 23.9716 101.667 30.8392 101.667 38Z" fill="#F82B60"/>
<path d="M67.2916 30.25H86.6968C87.3279 30.25 87.8012 30.8273 87.6774 31.4461L85.3274 43.1961C85.2339 43.6635 84.8235 44 84.3468 44H70.8614C70.3847 44 69.9743 43.6635 69.8808 43.1961L67.2916 30.25Z" fill="white" stroke="white" stroke-width="2"/>
<path d="M68.6666 37.125L66.4666 26.125H63.1666" stroke="white" stroke-width="2" stroke-linecap="round"/>
<circle cx="72.1041" cy="48.8125" r="2.0625" fill="white"/>
<circle cx="83.1041" cy="48.8125" r="2.0625" fill="white"/>
</g>
<defs>
<clipPath id="clip0_290_1155">
<rect width="88" height="88" fill="white" transform="translate(32)"/>
</clipPath>
</defs>
</svg>
