<svg width="28" height="36" viewBox="0 0 28 36" fill="none" xmlns="http://www.w3.org/2000/svg">
<path d="M28 14.7273C28 26.1818 14 36 14 36C14 36 0 26.1818 0 14.7273C5.53285e-08 10.8214 1.475 7.07542 4.1005 4.31352C6.72601 1.55162 10.287 0 14 0C17.713 0 21.274 1.55162 23.8995 4.31352C26.525 7.07542 28 10.8214 28 14.7273Z" fill="#FCB400"/>
<path d="M8 13.5H17.75V18.6923C17.75 19.3043 17.4932 19.8913 17.0361 20.3241C16.579 20.7569 15.959 21 15.3125 21H10.4375C9.79103 21 9.17105 20.7569 8.71393 20.3241C8.25681 19.8913 8 19.3043 8 18.6923V13.5Z" fill="white" stroke="white" stroke-width="1.5" stroke-linecap="round" stroke-linejoin="round"/>
<path d="M10.25 9.375V11.25" stroke="white" stroke-width="1.5" stroke-linecap="round" stroke-linejoin="round"/>
<path d="M12.875 9.375V11.25" stroke="white" stroke-width="1.5" stroke-linecap="round" stroke-linejoin="round"/>
<path d="M15.5 9.375V11.25" stroke="white" stroke-width="1.5" stroke-linecap="round" stroke-linejoin="round"/>
<path d="M17.75 13.5H18.35C18.9865 13.5 19.597 13.7371 20.0471 14.159C20.4971 14.581 20.75 15.1533 20.75 15.75C20.75 16.3467 20.4971 16.919 20.0471 17.341C19.597 17.7629 18.9865 18 18.35 18H17.75" stroke="white" stroke-width="1.5" stroke-linecap="round" stroke-linejoin="round"/>
</svg>
