<svg width="28" height="36" viewBox="0 0 28 36" fill="none" xmlns="http://www.w3.org/2000/svg">
<path d="M28 14.7273C28 26.1818 14 36 14 36C14 36 0 26.1818 0 14.7273C5.53285e-08 10.8214 1.475 7.07542 4.1005 4.31352C6.72601 1.55162 10.287 0 14 0C17.713 0 21.274 1.55162 23.8995 4.31352C26.525 7.07542 28 10.8214 28 14.7273Z" fill="#20C933"/>
<path d="M9.25 11.5H19.2802C19.9112 11.5 20.3845 12.0773 20.2608 12.6961L19.1608 18.1961C19.0673 18.6635 18.6569 19 18.1802 19H11.5698C11.0931 19 10.6827 18.6635 10.5892 18.1961L9.25 11.5Z" fill="white" stroke="white" stroke-width="2"/>
<path d="M10 15.25L8.8 9.25H7" stroke="white" stroke-width="2" stroke-linecap="round"/>
<circle cx="11.875" cy="21.625" r="1.125" fill="white"/>
<circle cx="17.875" cy="21.625" r="1.125" fill="white"/>
</svg>
