<svg width="28" height="36" viewBox="0 0 28 36" fill="none" xmlns="http://www.w3.org/2000/svg">
<path d="M28 14.7273C28 26.1818 14 36 14 36C14 36 0 26.1818 0 14.7273C5.53285e-08 10.8214 1.475 7.07542 4.1005 4.31352C6.72601 1.55162 10.287 0 14 0C17.713 0 21.274 1.55162 23.8995 4.31352C26.525 7.07542 28 10.8214 28 14.7273Z" fill="#1283DA"/>
<path d="M9.8 11C10.0485 11 10.25 10.7985 10.25 10.55V7.7C10.25 7.45147 10.4515 7.25 10.7 7.25H17.3C17.5485 7.25 17.75 7.45147 17.75 7.7V10.55C17.75 10.7985 17.9515 11 18.2 11H19.55C19.7985 11 20 11.2015 20 11.45V20.3C20 20.5485 19.7985 20.75 19.55 20.75H8.45C8.20147 20.75 8 20.5485 8 20.3V11.45C8 11.2015 8.20147 11 8.45 11H9.8Z" fill="white" stroke="white" stroke-width="1.5"/>
<path d="M13.9941 11V12.5M12.4941 11H13.9941H12.4941ZM15.4941 11H13.9941H15.4941ZM13.9941 11V9.5V11Z" stroke="#1283DA" stroke-width="1.5" stroke-linecap="round" stroke-linejoin="round"/>
<path d="M17 17.7575L17.0075 17.7491" stroke="#1283DA" stroke-width="1.5" stroke-linecap="round" stroke-linejoin="round"/>
<path d="M17 14.7575L17.0075 14.7491" stroke="#1283DA" stroke-width="1.5" stroke-linecap="round" stroke-linejoin="round"/>
<path d="M14 14.7575L14.0075 14.7491" stroke="#1283DA" stroke-width="1.5" stroke-linecap="round" stroke-linejoin="round"/>
<path d="M11 14.7575L11.0075 14.7491" stroke="#1283DA" stroke-width="1.5" stroke-linecap="round" stroke-linejoin="round"/>
<path d="M11 17.7575L11.0075 17.7491" stroke="#1283DA" stroke-width="1.5" stroke-linecap="round" stroke-linejoin="round"/>
<path d="M14 17.7575L14.0075 17.7491" stroke="#1283DA" stroke-width="1.5" stroke-linecap="round" stroke-linejoin="round"/>
</svg>
