<svg width="78" height="49" viewBox="0 0 78 49" fill="none" xmlns="http://www.w3.org/2000/svg">
<path d="M18.8332 24.5C18.8332 24.9602 18.4601 25.3333 17.9998 25.3333C17.5396 25.3333 17.1665 24.9602 17.1665 24.5C17.1665 24.0398 17.5396 23.6667 17.9998 23.6667C18.4601 23.6667 18.8332 24.0398 18.8332 24.5Z" fill="#6A6A6A"/>
<circle cx="18" cy="24.5" r="7.5" stroke="#6A6A6A"/>
<path d="M17.5 19C17.5 19.2761 17.7239 19.5 18 19.5C18.2761 19.5 18.5 19.2761 18.5 19H17.5ZM17.5 17V19H18.5V17H17.5Z" fill="#6A6A6A"/>
<path d="M18.5 30C18.5 29.7239 18.2761 29.5 18 29.5C17.7239 29.5 17.5 29.7239 17.5 30L18.5 30ZM18.5 32L18.5 30L17.5 30L17.5 32L18.5 32Z" fill="#6A6A6A"/>
<path d="M23.5 24C23.2239 24 23 24.2239 23 24.5C23 24.7761 23.2239 25 23.5 25L23.5 24ZM25.5 24L23.5 24L23.5 25L25.5 25L25.5 24Z" fill="#6A6A6A"/>
<path d="M12.5 25C12.7761 25 13 24.7761 13 24.5C13 24.2239 12.7761 24 12.5 24L12.5 25ZM10.5 25L12.5 25L12.5 24L10.5 24L10.5 25Z" fill="#6A6A6A"/>
<path d="M39.8996 19.942H32.8716V19.018H35.8676V17.478H37.0156V19.018H39.8996V19.942ZM42.0276 20.824V17.492H43.1896V27.054H42.0276V24.394H39.8996V23.456H42.0276V21.762H39.8996V20.824H42.0276ZM39.2696 23.022C39.2696 23.386 39.1996 23.7173 39.0596 24.016C38.9196 24.3053 38.7236 24.5573 38.4716 24.772C38.2196 24.9773 37.921 25.1407 37.5756 25.262C37.2303 25.374 36.8476 25.43 36.4276 25.43C36.0076 25.43 35.625 25.374 35.2796 25.262C34.9343 25.1407 34.6356 24.9773 34.3836 24.772C34.1316 24.5573 33.9356 24.3053 33.7956 24.016C33.6556 23.7173 33.5856 23.386 33.5856 23.022C33.5856 22.6673 33.6556 22.3453 33.7956 22.056C33.9356 21.7573 34.1316 21.5053 34.3836 21.3C34.6356 21.0853 34.9343 20.922 35.2796 20.81C35.625 20.698 36.0076 20.642 36.4276 20.642C36.8476 20.642 37.2303 20.698 37.5756 20.81C37.921 20.922 38.2196 21.0853 38.4716 21.3C38.7236 21.5053 38.9196 21.7573 39.0596 22.056C39.1996 22.3453 39.2696 22.6673 39.2696 23.022ZM34.6776 23.022C34.6776 23.47 34.8363 23.834 35.1536 24.114C35.471 24.394 35.8956 24.534 36.4276 24.534C36.9596 24.534 37.3843 24.394 37.7016 24.114C38.019 23.834 38.1776 23.47 38.1776 23.022C38.1776 22.574 38.019 22.2147 37.7016 21.944C37.3843 21.6733 36.9596 21.538 36.4276 21.538C35.8956 21.538 35.471 21.6733 35.1536 21.944C34.8363 22.2147 34.6776 22.574 34.6776 23.022ZM43.4836 28.818V29.756H35.1116V26.242H36.2596V28.818H43.4836ZM55.6065 17.492V30.05H54.4585V17.492H55.6065ZM49.4185 23.232C48.9519 23.232 48.5225 23.1713 48.1305 23.05C47.7385 22.9193 47.3979 22.742 47.1085 22.518C46.8285 22.294 46.6092 22.0233 46.4505 21.706C46.2919 21.3887 46.2125 21.0387 46.2125 20.656C46.2125 20.2733 46.2919 19.9233 46.4505 19.606C46.6092 19.2887 46.8285 19.018 47.1085 18.794C47.3979 18.5607 47.7385 18.3833 48.1305 18.262C48.5225 18.1313 48.9519 18.066 49.4185 18.066C49.8852 18.066 50.3145 18.1313 50.7065 18.262C51.0985 18.3833 51.4345 18.5607 51.7145 18.794C51.9945 19.018 52.2139 19.2887 52.3725 19.606C52.5312 19.9233 52.6105 20.2733 52.6105 20.656C52.6105 21.0387 52.5312 21.3887 52.3725 21.706C52.2139 22.0233 51.9945 22.294 51.7145 22.518C51.4345 22.742 51.0985 22.9193 50.7065 23.05C50.3145 23.1713 49.8852 23.232 49.4185 23.232ZM49.4185 19.018C48.8025 19.018 48.2985 19.172 47.9065 19.48C47.5145 19.7787 47.3185 20.1707 47.3185 20.656C47.3185 21.1413 47.5145 21.538 47.9065 21.846C48.2985 22.1447 48.8025 22.294 49.4185 22.294C50.0345 22.294 50.5339 22.1493 50.9165 21.86C51.3085 21.5613 51.5045 21.16 51.5045 20.656C51.5045 20.152 51.3085 19.7553 50.9165 19.466C50.5339 19.1673 50.0345 19.018 49.4185 19.018ZM53.6465 24.702C52.4519 24.9167 51.2525 25.0567 50.0485 25.122V29.644H48.9005V25.192C48.2752 25.22 47.6732 25.2387 47.0945 25.248C46.5159 25.2573 45.9605 25.262 45.4285 25.262L45.2745 24.296C45.8625 24.296 46.4925 24.2913 47.1645 24.282C47.8459 24.2727 48.5412 24.254 49.2505 24.226C49.9692 24.198 50.6925 24.156 51.4205 24.1C52.1485 24.0347 52.8579 23.9507 53.5485 23.848L53.6465 24.702ZM68.0515 17.464V30.022H66.8895V17.464H68.0515ZM62.3815 21.538C62.3815 22.07 62.4655 22.588 62.6335 23.092C62.8015 23.596 63.0301 24.0673 63.3195 24.506C63.6181 24.9353 63.9681 25.3227 64.3695 25.668C64.7801 26.0133 65.2188 26.2887 65.6855 26.494L65.0415 27.39C64.3135 27.0633 63.6695 26.5827 63.1095 25.948C62.5495 25.304 62.1248 24.562 61.8355 23.722C61.5555 24.5993 61.1355 25.3787 60.5755 26.06C60.0155 26.732 59.3715 27.2453 58.6435 27.6L57.9995 26.732C58.4661 26.508 58.8955 26.214 59.2875 25.85C59.6888 25.486 60.0341 25.08 60.3235 24.632C60.6128 24.1747 60.8368 23.6847 60.9955 23.162C61.1635 22.63 61.2475 22.0887 61.2475 21.538V20.572H58.3355V19.648H61.2335V17.702H62.3955V19.648H65.2515V20.572H62.3815V21.538Z" fill="#6A6A6A"/>
</svg>
