<svg width="91" height="49" viewBox="0 0 91 49" fill="none" xmlns="http://www.w3.org/2000/svg">
<path d="M15.156 21.3633L17.3206 17.0031C17.5984 16.4434 18.4013 16.4434 18.6791 17.0031L20.8437 21.3633L25.6844 22.0668C26.3055 22.1571 26.553 22.9162 26.1034 23.3516L22.6013 26.7432L23.4278 31.5345C23.5339 32.1498 22.8843 32.619 22.3286 32.3284L17.9998 30.065L13.6711 32.3284C13.1153 32.619 12.4657 32.1498 12.5719 31.5345L13.3984 26.7432L9.8963 23.3516C9.44665 22.9162 9.69419 22.1571 10.3153 22.0668L15.156 21.3633Z" stroke="#6A6A6A" stroke-linecap="round" stroke-linejoin="round"/>
<path d="M33.7162 21.314C34.2669 21.2673 34.7989 21.174 35.3122 21.034C35.8349 20.894 36.2969 20.7167 36.6982 20.502C37.1089 20.2873 37.4402 20.04 37.6922 19.76C37.9442 19.48 38.0842 19.1813 38.1122 18.864H34.1502V17.954H43.4462V18.864H39.4702C39.4982 19.1813 39.6382 19.48 39.8902 19.76C40.1422 20.04 40.4689 20.2873 40.8702 20.502C41.2715 20.7167 41.7289 20.894 42.2422 21.034C42.7649 21.174 43.3062 21.2673 43.8662 21.314L43.5022 22.196C42.9795 22.14 42.4755 22.0513 41.9902 21.93C41.5049 21.7993 41.0569 21.6407 40.6462 21.454C40.2355 21.2673 39.8715 21.048 39.5542 20.796C39.2369 20.544 38.9849 20.2593 38.7982 19.942C38.6115 20.2593 38.3549 20.544 38.0282 20.796C37.7109 21.048 37.3469 21.2673 36.9362 21.454C36.5255 21.6407 36.0775 21.7993 35.5922 21.93C35.1069 22.0513 34.6029 22.14 34.0802 22.196L33.7162 21.314ZM44.4682 22.826V23.75H33.1002V22.826H44.4682ZM35.6342 29.014H43.3902V29.896H34.5142V26.914H41.8782V25.766H34.4722V24.884H43.0122V27.754H35.6342V29.014ZM55.9051 17.464V30.022H54.7571V25.22H51.2851V24.282H54.7571V21.846H51.4671C51.1124 23.0127 50.5058 24.0953 49.6471 25.094C48.7978 26.0833 47.6404 26.942 46.1751 27.67L45.5731 26.746C47.2344 25.9247 48.4804 24.926 49.3111 23.75C50.1511 22.574 50.6271 21.244 50.7391 19.76H46.1191V18.836H51.8871C51.8871 19.5267 51.8218 20.222 51.6911 20.922H54.7571V17.464H55.9051ZM64.836 24.38C64.108 24.1653 63.4827 23.8387 62.96 23.4C62.4373 22.9613 62.036 22.448 61.756 21.86C61.4853 22.5133 61.0747 23.078 60.524 23.554C59.9733 24.03 59.3293 24.3893 58.592 24.632L58.032 23.722C58.4987 23.582 58.9233 23.3907 59.306 23.148C59.6887 22.9053 60.0153 22.6253 60.286 22.308C60.566 21.9907 60.7807 21.6453 60.93 21.272C61.0887 20.8893 61.168 20.4927 61.168 20.082V19.872H58.382V18.948H61.168V17.422H62.316V18.948H65.088V19.872H62.316V20.082C62.316 20.4553 62.386 20.8193 62.526 21.174C62.6753 21.5287 62.8853 21.8553 63.156 22.154C63.4267 22.4527 63.7487 22.7187 64.122 22.952C64.5047 23.1853 64.9247 23.3673 65.382 23.498L64.836 24.38ZM69.638 20.586V21.538H67.776V24.772H66.628V17.492H67.776V20.586H69.638ZM64.472 26.368C64.528 26.6947 64.6727 27.0073 64.906 27.306C65.1393 27.5953 65.4333 27.8613 65.788 28.104C66.152 28.3467 66.5627 28.5567 67.02 28.734C67.4867 28.902 67.972 29.028 68.476 29.112L68.042 29.994C67.5847 29.9193 67.1413 29.8073 66.712 29.658C66.292 29.5087 65.9 29.3267 65.536 29.112C65.172 28.9067 64.8453 28.6687 64.556 28.398C64.276 28.1273 64.0473 27.838 63.87 27.53C63.5153 28.1647 62.9647 28.692 62.218 29.112C61.4713 29.5413 60.6313 29.8307 59.698 29.98L59.292 29.098C59.796 29.0233 60.2767 28.902 60.734 28.734C61.2007 28.566 61.6113 28.3607 61.966 28.118C62.33 27.8753 62.624 27.6047 62.848 27.306C63.0813 27.0073 63.2213 26.6947 63.268 26.368H59.768V25.458H67.986V26.368H64.472ZM80.7949 17.478V30.036H79.6469V17.478H80.7949ZM77.1129 18.836C77.1129 19.7413 77.0056 20.6187 76.7909 21.468C76.5762 22.308 76.2309 23.106 75.7549 23.862C75.2882 24.6087 74.6862 25.3087 73.9489 25.962C73.2116 26.606 72.3202 27.1847 71.2749 27.698L70.6589 26.76C72.3482 25.9573 73.6222 24.9633 74.4809 23.778C75.3396 22.5927 75.8296 21.2533 75.9509 19.76H71.2329V18.836H77.1129Z" fill="#A8A8A8"/>
</svg>
