<svg width="21" height="21" viewBox="0 0 21 21" fill="none" xmlns="http://www.w3.org/2000/svg">
<rect x="18" y="15.5" width="10.8333" height="1.66667" rx="0.833334" transform="rotate(180 18 15.5)" fill="#A8A8A8"/>
<path fill-rule="evenodd" clip-rule="evenodd" d="M5.5 15.5C5.96024 15.5 6.33333 15.1269 6.33333 14.6667C6.33333 14.2064 5.96024 13.8334 5.5 13.8334C5.03976 13.8334 4.66667 14.2064 4.66667 14.6667C4.66667 15.1269 5.03976 15.5 5.5 15.5ZM8 14.6667C8 16.0474 6.88071 17.1667 5.5 17.1667C4.11929 17.1667 3 16.0474 3 14.6667C3 13.286 4.11929 12.1667 5.5 12.1667C6.88071 12.1667 8 13.286 8 14.6667Z" fill="#A8A8A8"/>
<rect x="3" y="5.5" width="10.8333" height="1.66667" rx="0.833334" fill="#A8A8A8"/>
<path fill-rule="evenodd" clip-rule="evenodd" d="M15.5 5.49998C15.0398 5.49998 14.6667 5.87308 14.6667 6.33331C14.6667 6.79355 15.0398 7.16665 15.5 7.16665C15.9602 7.16665 16.3333 6.79355 16.3333 6.33331C16.3333 5.87308 15.9602 5.49998 15.5 5.49998ZM13 6.33331C13 4.9526 14.1193 3.83331 15.5 3.83331C16.8807 3.83331 18 4.9526 18 6.33331C18 7.71402 16.8807 8.83331 15.5 8.83331C14.1193 8.83331 13 7.71403 13 6.33331Z" fill="#A8A8A8"/>
</svg>
