<svg width="113" height="14" viewBox="0 0 113 14" fill="none" xmlns="http://www.w3.org/2000/svg">
<path d="M7.96556 13.252C6.95756 13.252 6.02756 13.09 5.17556 12.766C4.32356 12.442 3.57956 11.986 2.94356 11.398C2.31956 10.798 1.83356 10.102 1.48556 9.31C1.13756 8.518 0.963563 7.648 0.963563 6.7C0.963563 5.752 1.13756 4.882 1.48556 4.09C1.83356 3.298 2.31956 2.608 2.94356 2.02C3.57956 1.42 4.32356 0.957999 5.17556 0.633999C6.02756 0.309999 6.95756 0.147999 7.96556 0.147999C8.98556 0.147999 9.91556 0.309999 10.7556 0.633999C11.6076 0.957999 12.3456 1.42 12.9696 2.02C13.5936 2.608 14.0796 3.298 14.4276 4.09C14.7876 4.882 14.9676 5.752 14.9676 6.7C14.9676 7.648 14.7876 8.524 14.4276 9.328C14.0796 10.12 13.5936 10.81 12.9696 11.398C12.3456 11.986 11.6076 12.442 10.7556 12.766C9.91556 13.09 8.98556 13.252 7.96556 13.252ZM7.96556 10.3C8.44556 10.3 8.88956 10.216 9.29756 10.048C9.71756 9.88 10.0776 9.64 10.3776 9.328C10.6896 9.004 10.9296 8.62 11.0976 8.176C11.2776 7.732 11.3676 7.24 11.3676 6.7C11.3676 6.148 11.2776 5.656 11.0976 5.224C10.9296 4.78 10.6896 4.402 10.3776 4.09C10.0776 3.766 9.71756 3.52 9.29756 3.352C8.88956 3.184 8.44556 3.1 7.96556 3.1C7.48556 3.1 7.03556 3.184 6.61556 3.352C6.20756 3.52 5.84756 3.766 5.53556 4.09C5.23556 4.402 4.99556 4.78 4.81556 5.224C4.64756 5.656 4.56356 6.148 4.56356 6.7C4.56356 7.24 4.64756 7.732 4.81556 8.176C4.99556 8.62 5.23556 9.004 5.53556 9.328C5.84756 9.64 6.20756 9.88 6.61556 10.048C7.03556 10.216 7.48556 10.3 7.96556 10.3ZM16.3342 13V0.399999H19.2682L26.2162 8.788H24.8302V0.399999H28.3222V13H25.3882L18.4402 4.612H19.8262V13H16.3342ZM35.0745 13V0.399999H38.0085L43.2285 8.968H41.6805L46.7565 0.399999H49.6905L49.7265 13H46.4505L46.4145 5.386H46.9725L43.1745 11.758H41.5905L37.6845 5.386H38.3685V13H35.0745ZM54.9343 13V7.672L55.7623 9.814L50.1283 0.399999H53.8903L57.9583 7.222H55.7803L59.8663 0.399999H63.3223L57.7063 9.814L58.4983 7.672V13H54.9343ZM71.581 13L67.495 0.399999H71.167L74.605 11.308H72.751L76.369 0.399999H79.645L83.065 11.308H81.283L84.829 0.399999H88.231L84.145 13H80.329L77.413 3.73H78.439L75.397 13H71.581ZM87.0566 13L92.6186 0.399999H96.1286L101.709 13H98.0006L93.6446 2.146H95.0486L90.6926 13H87.0566ZM90.0986 10.552L91.0166 7.924H97.1726L98.0906 10.552H90.0986ZM104.614 13V7.672L105.442 9.814L99.808 0.399999H103.57L107.638 7.222H105.46L109.546 0.399999H113.002L107.386 9.814L108.178 7.672V13H104.614Z" fill="#C1C1C1"/>
</svg>
