<svg width="140" height="99" viewBox="0 0 140 99" fill="none" xmlns="http://www.w3.org/2000/svg">
<path d="M95 25.3636C95 45.0909 70 62 70 62C70 62 45 45.0909 45 25.3636C45 18.6368 47.6339 12.1854 52.3223 7.42884C57.0107 2.67223 63.3696 0 70 0C76.6304 0 82.9893 2.67223 87.6777 7.42884C92.3661 12.1854 95 18.6368 95 25.3636Z" fill="#D8D8D8"/>
<circle cx="70" cy="25" r="13" fill="white"/>
<path d="M14.2448 83.464V84.568H12.1168V88.504H10.8048V79.848H12.1168V83.464H14.2448ZM8.67681 87.8C7.84481 87.5333 7.13548 87.1333 6.54881 86.6C5.96215 86.056 5.51415 85.4267 5.20481 84.712C4.89548 85.544 4.43148 86.264 3.81281 86.872C3.19415 87.4693 2.45281 87.9227 1.58881 88.232L0.916813 87.192C1.46081 87 1.95148 86.7493 2.38881 86.44C2.83681 86.12 3.21548 85.7573 3.52481 85.352C3.84481 84.9467 4.09015 84.504 4.26081 84.024C4.43148 83.544 4.51681 83.0427 4.51681 82.52V81.96H1.30081V80.904H8.99681V81.96H5.82881V82.52C5.82881 82.9893 5.90881 83.4427 6.06881 83.88C6.22881 84.3173 6.45815 84.7227 6.75681 85.096C7.06615 85.4693 7.43415 85.8 7.86081 86.088C8.28748 86.376 8.76748 86.6053 9.30081 86.776L8.67681 87.8ZM7.55681 88.872C8.28215 88.872 8.93281 88.9307 9.50881 89.048C10.0955 89.1653 10.5915 89.3413 10.9968 89.576C11.4128 89.8 11.7275 90.0773 11.9408 90.408C12.1648 90.728 12.2768 91.096 12.2768 91.512C12.2768 91.928 12.1648 92.3013 11.9408 92.632C11.7275 92.9627 11.4128 93.24 10.9968 93.464C10.5915 93.6987 10.0955 93.8747 9.50881 93.992C8.93281 94.1093 8.28215 94.168 7.55681 94.168C6.08481 94.168 4.92748 93.9333 4.08481 93.464C3.24215 93.0053 2.82081 92.3547 2.82081 91.512C2.82081 90.68 3.24215 90.0347 4.08481 89.576C4.92748 89.1067 6.08481 88.872 7.55681 88.872ZM7.55681 93.128C8.62348 93.128 9.45548 92.9893 10.0528 92.712C10.6608 92.424 10.9648 92.024 10.9648 91.512C10.9648 91 10.6608 90.6053 10.0528 90.328C9.45548 90.0507 8.62348 89.912 7.55681 89.912C6.45815 89.912 5.61015 90.0507 5.01281 90.328C4.42615 90.6053 4.13281 91 4.13281 91.512C4.13281 92.024 4.42615 92.424 5.01281 92.712C5.61015 92.9893 6.45815 93.128 7.55681 93.128ZM27.5236 87.928C26.9796 87.8107 26.4356 87.6347 25.8916 87.4C25.3476 87.1547 24.8356 86.8613 24.3556 86.52C23.8862 86.1787 23.4596 85.7893 23.0756 85.352C22.6916 84.9147 22.3822 84.44 22.1476 83.928C21.9129 84.44 21.6036 84.9147 21.2196 85.352C20.8356 85.7893 20.4036 86.1787 19.9236 86.52C19.4542 86.8613 18.9476 87.1547 18.4036 87.4C17.8702 87.6347 17.3262 87.8107 16.7716 87.928L16.2276 86.84C16.8569 86.7333 17.4809 86.5307 18.0996 86.232C18.7289 85.9227 19.2889 85.5493 19.7796 85.112C20.2809 84.664 20.6862 84.168 20.9956 83.624C21.3049 83.0693 21.4596 82.4933 21.4596 81.896V80.792H22.8356V81.896C22.8356 82.4933 22.9902 83.0693 23.2996 83.624C23.6089 84.168 24.0142 84.664 24.5156 85.112C25.0169 85.5493 25.5769 85.9227 26.1956 86.232C26.8249 86.5307 27.4542 86.7333 28.0836 86.84L27.5236 87.928ZM28.7236 91.24V92.312H15.6996V91.24H21.4916V87.752H22.8036V91.24H28.7236ZM40.4663 81.176H32.0503V80.248H41.7623V83.24H33.3783V84.472H42.0183V85.416H32.0823V82.344H40.4663V81.176ZM43.4263 86.504V87.496H30.4183V86.504H43.4263ZM33.2983 93.048H42.2583V93.992H32.0023V90.808H40.5143V89.608H31.9703V88.664H41.8103V91.72H33.2983V93.048ZM60.4912 79.848V87.544H59.1792V79.848H60.4912ZM52.7792 80.52C53.3232 80.52 53.8245 80.6 54.2832 80.76C54.7419 80.92 55.1365 81.144 55.4672 81.432C55.8085 81.72 56.0699 82.0667 56.2512 82.472C56.4432 82.8773 56.5392 83.3253 56.5392 83.816C56.5392 84.3067 56.4432 84.76 56.2512 85.176C56.0699 85.5813 55.8085 85.928 55.4672 86.216C55.1365 86.504 54.7419 86.728 54.2832 86.888C53.8245 87.048 53.3232 87.128 52.7792 87.128C52.2352 87.128 51.7339 87.048 51.2752 86.888C50.8272 86.728 50.4379 86.504 50.1072 86.216C49.7765 85.928 49.5152 85.5813 49.3232 85.176C49.1419 84.76 49.0512 84.3067 49.0512 83.816C49.0512 83.3253 49.1419 82.8773 49.3232 82.472C49.5152 82.0667 49.7765 81.72 50.1072 81.432C50.4379 81.144 50.8272 80.92 51.2752 80.76C51.7339 80.6 52.2352 80.52 52.7792 80.52ZM52.7792 81.608C52.4272 81.608 52.0965 81.6613 51.7872 81.768C51.4885 81.8747 51.2325 82.0293 51.0192 82.232C50.8059 82.424 50.6352 82.6587 50.5072 82.936C50.3899 83.2027 50.3312 83.496 50.3312 83.816C50.3312 84.1467 50.3899 84.4507 50.5072 84.728C50.6352 84.9947 50.8059 85.2293 51.0192 85.432C51.2325 85.624 51.4885 85.7733 51.7872 85.88C52.0965 85.9867 52.4272 86.04 52.7792 86.04C53.5152 86.04 54.1125 85.8373 54.5712 85.432C55.0299 85.0267 55.2592 84.488 55.2592 83.816C55.2592 83.496 55.1952 83.2027 55.0672 82.936C54.9499 82.6587 54.7792 82.424 54.5552 82.232C54.3419 82.0293 54.0805 81.8747 53.7712 81.768C53.4725 81.6613 53.1419 81.608 52.7792 81.608ZM52.5392 88.248V90.008H59.1952V88.248H60.4912V93.992H51.2432V88.248H52.5392ZM52.5392 92.936H59.1952V91.032H52.5392V92.936ZM75.2419 79.848V88.664H73.9299V86.008H71.1299V84.952H73.9299V83.032H71.1299V81.96H73.9299V79.848H75.2419ZM71.1459 87.656C70.7086 87.7307 70.2766 87.7947 69.8499 87.848C69.4339 87.8907 68.9913 87.9227 68.5219 87.944C68.0526 87.9653 67.5353 87.9813 66.9699 87.992C66.4153 88.0027 65.7806 88.008 65.0659 88.008H64.0419V83.752H68.9059V81.768H63.9939V80.696H70.1859V84.76H65.3219V86.936C65.9833 86.936 66.5753 86.9307 67.0979 86.92C67.6206 86.9093 68.1006 86.8933 68.5379 86.872C68.9859 86.84 69.4073 86.8027 69.8019 86.76C70.1966 86.7173 70.6019 86.664 71.0179 86.6L71.1459 87.656ZM65.6419 89.432H75.2419V94.2H73.9299V90.504H65.6419V89.432ZM90.3127 79.816V94.168H89.0487V86.952H87.2087V93.48H85.9767V80.152H87.2087V85.88H89.0487V79.816H90.3127ZM82.3447 82.28H85.2567V83.352H78.1367V82.28H81.0487V80.248H82.3447V82.28ZM81.7047 84.312C82.1527 84.312 82.5634 84.392 82.9367 84.552C83.31 84.712 83.63 84.936 83.8967 85.224C84.174 85.512 84.3874 85.8587 84.5367 86.264C84.6967 86.6587 84.7767 87.096 84.7767 87.576C84.7767 88.0667 84.6967 88.5147 84.5367 88.92C84.3874 89.3147 84.174 89.656 83.8967 89.944C83.63 90.232 83.31 90.456 82.9367 90.616C82.5634 90.776 82.1527 90.856 81.7047 90.856C81.2567 90.856 80.846 90.776 80.4727 90.616C80.0994 90.456 79.774 90.232 79.4967 89.944C79.23 89.656 79.0167 89.3147 78.8567 88.92C78.7074 88.5147 78.6327 88.0667 78.6327 87.576C78.6327 87.096 78.7074 86.6587 78.8567 86.264C79.0167 85.8587 79.23 85.512 79.4967 85.224C79.774 84.936 80.0994 84.712 80.4727 84.552C80.846 84.392 81.2567 84.312 81.7047 84.312ZM81.7047 89.768C82.2594 89.768 82.7127 89.5653 83.0647 89.16C83.4274 88.744 83.6087 88.216 83.6087 87.576C83.6087 87.2667 83.5607 86.9787 83.4647 86.712C83.3687 86.4453 83.2354 86.216 83.0647 86.024C82.9047 85.832 82.7074 85.6827 82.4727 85.576C82.238 85.4693 81.982 85.416 81.7047 85.416C81.1287 85.416 80.6647 85.6187 80.3127 86.024C79.9714 86.4187 79.8007 86.936 79.8007 87.576C79.8007 88.216 79.9767 88.744 80.3287 89.16C80.6914 89.5653 81.15 89.768 81.7047 89.768ZM93.6554 85.768C94.2848 85.672 94.8928 85.5067 95.4794 85.272C96.0768 85.0267 96.6101 84.7333 97.0794 84.392C97.5488 84.04 97.9221 83.6507 98.1994 83.224C98.4874 82.7867 98.6314 82.3333 98.6314 81.864V81.784H94.1034V80.728H104.583V81.784H100.087V81.864C100.087 82.3333 100.226 82.7867 100.503 83.224C100.791 83.6507 101.17 84.04 101.639 84.392C102.109 84.7333 102.642 85.0267 103.239 85.272C103.847 85.5067 104.466 85.672 105.095 85.768L104.583 86.808C104.029 86.712 103.485 86.568 102.951 86.376C102.418 86.184 101.922 85.9493 101.463 85.672C101.005 85.384 100.594 85.064 100.231 84.712C99.8688 84.3493 99.5808 83.9547 99.3674 83.528C99.1434 83.9547 98.8501 84.3493 98.4874 84.712C98.1248 85.064 97.7141 85.384 97.2554 85.672C96.8074 85.9493 96.3168 86.184 95.7834 86.376C95.2608 86.568 94.7168 86.712 94.1514 86.808L93.6554 85.768ZM105.863 89.08H99.9914V94.184H98.6794V89.08H92.8874V88.008H105.847L105.863 89.08ZM119.782 79.832V94.184H118.534V79.832H119.782ZM115.622 80.152H116.854V93.48H115.622V86.072H113.254V84.984H115.622V80.152ZM111.846 83.88C111.846 84.456 111.91 85.032 112.038 85.608C112.177 86.184 112.369 86.7333 112.614 87.256C112.87 87.7787 113.18 88.2587 113.542 88.696C113.916 89.1227 114.337 89.48 114.806 89.768L114.054 90.792C113.372 90.376 112.79 89.8107 112.31 89.096C111.841 88.3707 111.478 87.5707 111.222 86.696C110.966 87.6667 110.582 88.536 110.07 89.304C109.569 90.0613 108.961 90.664 108.246 91.112L107.43 90.12C107.921 89.832 108.358 89.464 108.742 89.016C109.137 88.568 109.468 88.072 109.734 87.528C110.012 86.9733 110.22 86.392 110.358 85.784C110.508 85.1653 110.582 84.5467 110.582 83.928V81.192H111.846V83.88ZM135.333 91.256V92.344H122.293V91.256H125.493V87.384C124.885 87.0747 124.41 86.6693 124.069 86.168C123.738 85.656 123.573 85.0747 123.573 84.424C123.573 83.8693 123.701 83.368 123.957 82.92C124.213 82.4613 124.57 82.072 125.029 81.752C125.498 81.432 126.053 81.1867 126.693 81.016C127.333 80.8347 128.032 80.744 128.789 80.744C129.557 80.744 130.256 80.8347 130.885 81.016C131.525 81.1867 132.074 81.432 132.533 81.752C133.002 82.072 133.365 82.4613 133.621 82.92C133.877 83.368 134.005 83.8693 134.005 84.424C134.005 85.0747 133.84 85.6507 133.509 86.152C133.189 86.6533 132.725 87.0587 132.117 87.368V91.256H135.333ZM128.789 81.768C128.213 81.768 127.68 81.832 127.189 81.96C126.709 82.088 126.293 82.2693 125.941 82.504C125.6 82.728 125.328 83.0053 125.125 83.336C124.933 83.656 124.837 84.0187 124.837 84.424C124.837 84.8187 124.933 85.1813 125.125 85.512C125.328 85.8427 125.6 86.1253 125.941 86.36C126.293 86.584 126.709 86.76 127.189 86.888C127.68 87.016 128.213 87.08 128.789 87.08C129.365 87.08 129.893 87.016 130.373 86.888C130.864 86.76 131.285 86.584 131.637 86.36C131.989 86.1253 132.261 85.8427 132.453 85.512C132.656 85.1813 132.757 84.8187 132.757 84.424C132.757 84.0187 132.656 83.656 132.453 83.336C132.261 83.0053 131.989 82.728 131.637 82.504C131.285 82.2693 130.864 82.088 130.373 81.96C129.893 81.832 129.365 81.768 128.789 81.768ZM126.805 91.256H130.805V87.88C130.09 88.0293 129.418 88.104 128.789 88.104C128.117 88.104 127.456 88.0293 126.805 87.88V91.256ZM136.852 91.72H138.308V93.224H136.852V91.72Z" fill="#7C7C7C"/>
</svg>
