<svg width="118" height="49" viewBox="0 0 118 49" fill="none" xmlns="http://www.w3.org/2000/svg">
<path d="M20.5 18.6667L15.5 17M15.5 30.3333L11.1581 31.7807C10.8344 31.8886 10.5 31.6476 10.5 31.3062V19.027C10.5 18.8118 10.6377 18.6208 10.8419 18.5527L15.5 17V30.3333ZM15.5 30.3333L20.5 32L15.5 30.3333ZM15.5 30.3333V17V30.3333ZM20.5 32L25.1581 30.4473C25.3623 30.3793 25.5 30.1882 25.5 29.9729V17.6937C25.5 17.3524 25.1657 17.1115 24.8419 17.2194L20.5 18.6667V32ZM20.5 32V18.6667V32Z" stroke="#6A6A6A" stroke-linecap="round" stroke-linejoin="round"/>
<path d="M43.0759 17.492V30.036H41.9279V17.492H43.0759ZM37.2799 21.314C37.2799 21.846 37.3685 22.3733 37.5459 22.896C37.7232 23.4187 37.9612 23.9087 38.2599 24.366C38.5679 24.814 38.9272 25.2153 39.3379 25.57C39.7485 25.9247 40.1825 26.2 40.6399 26.396L39.9959 27.32C39.2679 26.984 38.6099 26.48 38.0219 25.808C37.4432 25.1267 37.0045 24.352 36.7059 23.484C36.5658 23.9413 36.3838 24.38 36.1599 24.8C35.9359 25.22 35.6839 25.612 35.4038 25.976C35.1238 26.34 34.8205 26.662 34.4939 26.942C34.1672 27.222 33.8265 27.4507 33.4718 27.628L32.7998 26.704C33.2478 26.4893 33.6725 26.1907 34.0739 25.808C34.4845 25.416 34.8392 24.982 35.1379 24.506C35.4459 24.0207 35.6885 23.5027 35.8659 22.952C36.0432 22.4013 36.1319 21.8553 36.1319 21.314V19.718H33.2198V18.766H40.2339V19.718H37.2799V21.314ZM56.6548 27.502V28.454H45.2448V27.502H50.3548V24.282H46.7008V18.486H55.2128V19.424H47.8488V23.358H55.3388V24.282H51.5168V27.502H56.6548ZM68.3857 17.478V30.036H67.2937V17.478H68.3857ZM64.8017 17.758H65.8937V29.42H64.8017V23.302H63.2197C63.1917 23.918 63.1077 24.4733 62.9677 24.968C62.837 25.4533 62.655 25.8687 62.4217 26.214C62.1977 26.5593 61.927 26.8253 61.6097 27.012C61.2923 27.1893 60.9423 27.278 60.5597 27.278C60.149 27.278 59.7757 27.1753 59.4397 26.97C59.113 26.7647 58.833 26.4753 58.5997 26.102C58.3663 25.7193 58.1843 25.2573 58.0537 24.716C57.9323 24.1747 57.8717 23.5633 57.8717 22.882C57.8717 22.21 57.9323 21.608 58.0537 21.076C58.1843 20.5347 58.3663 20.0773 58.5997 19.704C58.833 19.3213 59.113 19.032 59.4397 18.836C59.7757 18.6307 60.149 18.528 60.5597 18.528C60.9423 18.528 61.2877 18.6167 61.5957 18.794C61.9037 18.9713 62.1697 19.228 62.3937 19.564C62.627 19.8907 62.8137 20.292 62.9537 20.768C63.0937 21.244 63.1823 21.776 63.2197 22.364H64.8017V17.758ZM60.5597 26.214C61.0637 26.214 61.4603 25.92 61.7497 25.332C62.039 24.744 62.1837 23.9273 62.1837 22.882C62.1837 22.378 62.1417 21.9253 62.0577 21.524C61.983 21.1133 61.8757 20.768 61.7357 20.488C61.5957 20.1987 61.423 19.9793 61.2177 19.83C61.0217 19.6713 60.8023 19.592 60.5597 19.592C60.0557 19.592 59.6543 19.886 59.3557 20.474C59.0663 21.062 58.9217 21.8647 58.9217 22.882C58.9217 23.9273 59.0663 24.744 59.3557 25.332C59.6543 25.92 60.0557 26.214 60.5597 26.214ZM80.5226 17.478V30.05H79.3746V22.672H76.4626V21.734H79.3746V17.478H80.5226ZM74.5726 20.81C74.5726 21.3793 74.6566 21.944 74.8246 22.504C74.9926 23.0547 75.2212 23.5727 75.5106 24.058C75.8092 24.5433 76.1546 24.9773 76.5466 25.36C76.9386 25.7333 77.3632 26.0273 77.8206 26.242L77.1486 27.152C76.4486 26.7973 75.8186 26.2653 75.2586 25.556C74.7079 24.8467 74.2879 24.0533 73.9986 23.176C73.7186 24.1093 73.3032 24.9493 72.7526 25.696C72.2112 26.4427 71.5859 27.0027 70.8766 27.376L70.1766 26.466C70.6339 26.242 71.0586 25.9293 71.4506 25.528C71.8426 25.1267 72.1832 24.674 72.4726 24.17C72.7712 23.666 73.0046 23.1247 73.1726 22.546C73.3406 21.9673 73.4246 21.3887 73.4246 20.81V18.556H74.5726V20.81ZM94.5303 21.384H91.7863V20.432H94.5303V17.492H95.6923V26.872H94.5303V21.384ZM92.0803 24.786C91.3803 24.5153 90.7737 24.1233 90.2603 23.61C89.747 23.0873 89.355 22.4853 89.0843 21.804C88.8137 22.56 88.4077 23.2227 87.8663 23.792C87.3343 24.352 86.6997 24.7813 85.9623 25.08L85.3603 24.17C85.827 24.002 86.2517 23.7687 86.6343 23.47C87.0263 23.1713 87.3577 22.8307 87.6283 22.448C87.9083 22.056 88.123 21.636 88.2723 21.188C88.4217 20.7307 88.4963 20.264 88.4963 19.788V18.234H89.6443V19.83C89.6443 20.2687 89.719 20.698 89.8683 21.118C90.0177 21.5287 90.223 21.916 90.4843 22.28C90.755 22.6347 91.077 22.952 91.4503 23.232C91.8237 23.512 92.2343 23.736 92.6823 23.904L92.0803 24.786ZM95.9863 28.818V29.756H87.6143V25.836H88.7623V28.818H95.9863ZM108.403 17.492V25.094H107.297V21.692H105.617V25.01H104.525V17.716H105.617V20.754H107.297V17.492H108.403ZM103.797 24.086C103.433 24.1607 103.079 24.2213 102.733 24.268C102.397 24.3147 102.047 24.352 101.683 24.38C101.319 24.3987 100.932 24.4127 100.521 24.422C100.111 24.4313 99.6532 24.436 99.1492 24.436H98.3512V18.402H103.195V19.326H99.4572V20.908H103.055V21.79H99.4572V23.498C99.9052 23.498 100.316 23.4933 100.689 23.484C101.063 23.4747 101.417 23.456 101.753 23.428C102.089 23.4 102.411 23.3673 102.719 23.33C103.037 23.2833 103.359 23.2273 103.685 23.162L103.797 24.086ZM99.9612 25.752H108.403V30.036H107.255V26.676H99.9612V25.752Z" fill="#A8A8A8"/>
</svg>
