<svg width="56" height="79" viewBox="0 0 56 79" fill="none" xmlns="http://www.w3.org/2000/svg">
<circle cx="28" cy="28.5" r="28" fill="#2D7FF9"/>
<path d="M32 17.5L39 24.1379L32 30.7759" stroke="white" stroke-width="4" stroke-linecap="round" stroke-linejoin="round"/>
<path d="M39 24.1378L27 24.1378C22.5818 24.1378 19 27.5343 19 31.724L19 38.9999" stroke="white" stroke-width="4" stroke-linecap="round" stroke-linejoin="round"/>
<path d="M11.7539 68.456C11.0899 70.192 9.55388 71.4 7.14588 72.08L6.65388 71.096C7.96588 70.736 8.95788 70.236 9.62988 69.596C10.3099 68.956 10.7059 68.212 10.8179 67.364H7.21788V66.368H12.1379C12.1379 66.56 12.1299 66.748 12.1139 66.932C12.0979 67.108 12.0739 67.28 12.0419 67.448H14.2739V65.588H15.5099V71.96H14.2739V70.712H11.6459V69.704H14.2739V68.456H11.7539ZM11.9579 72.092C12.5099 72.092 13.0059 72.144 13.4459 72.248C13.8939 72.344 14.2739 72.484 14.5859 72.668C14.9059 72.852 15.1499 73.076 15.3179 73.34C15.4939 73.604 15.5819 73.9 15.5819 74.228C15.5819 74.564 15.4939 74.864 15.3179 75.128C15.1499 75.392 14.9059 75.616 14.5859 75.8C14.2739 75.984 13.8939 76.124 13.4459 76.22C13.0059 76.324 12.5099 76.376 11.9579 76.376C11.4059 76.376 10.9059 76.324 10.4579 76.22C10.0179 76.124 9.64188 75.984 9.32988 75.8C9.01788 75.616 8.77388 75.392 8.59788 75.128C8.42988 74.864 8.34588 74.564 8.34588 74.228C8.34588 73.9 8.42988 73.604 8.59788 73.34C8.77388 73.076 9.01788 72.852 9.32988 72.668C9.64188 72.484 10.0179 72.344 10.4579 72.248C10.9059 72.144 11.4059 72.092 11.9579 72.092ZM11.9579 75.404C12.7099 75.404 13.2979 75.304 13.7219 75.104C14.1459 74.904 14.3579 74.612 14.3579 74.228C14.3579 73.844 14.1459 73.556 13.7219 73.364C13.2979 73.164 12.7099 73.064 11.9579 73.064C11.2059 73.064 10.6179 73.164 10.1939 73.364C9.77788 73.556 9.56988 73.844 9.56988 74.228C9.56988 74.612 9.77788 74.904 10.1939 75.104C10.6179 75.304 11.2059 75.404 11.9579 75.404ZM27.3889 74.132V75.152H17.5729V74.132H21.8449V72.284H18.7609V68.792H25.0009V67.34H18.7369V66.344H26.2249V69.776H19.9729V71.288H26.4649V72.284H23.0809V74.132H27.3889ZM36.352 69.044H34.156V68.024H36.352V65.588H37.588V73.652H36.352V69.044ZM34.348 71.948C33.764 71.732 33.264 71.416 32.848 71C32.432 70.584 32.108 70.1 31.876 69.548C31.636 70.156 31.292 70.692 30.844 71.156C30.404 71.612 29.872 71.96 29.248 72.2L28.588 71.24C29.012 71.088 29.388 70.884 29.716 70.628C30.044 70.372 30.316 70.08 30.532 69.752C30.756 69.424 30.924 69.068 31.036 68.684C31.156 68.3 31.216 67.908 31.216 67.508V66.248H32.476V67.532C32.476 67.892 32.532 68.248 32.644 68.6C32.756 68.952 32.92 69.28 33.136 69.584C33.352 69.888 33.616 70.164 33.928 70.412C34.24 70.652 34.6 70.844 35.008 70.988L34.348 71.948ZM37.84 75.212V76.22H30.532V72.8H31.78V75.212H37.84ZM48.8191 65.588V72.176H47.6431V69.344H46.4431V72.104H45.2911V65.792H46.4431V68.336H47.6431V65.588H48.8191ZM44.7511 71.408C44.4391 71.464 44.1351 71.512 43.8391 71.552C43.5511 71.584 43.2511 71.608 42.9391 71.624C42.6271 71.64 42.2951 71.652 41.9431 71.66C41.5991 71.668 41.2151 71.672 40.7911 71.672H40.0591V66.356H44.2831V67.352H41.2591V68.492H44.1631V69.452H41.2591V70.664C41.6031 70.664 41.9191 70.66 42.2071 70.652C42.5031 70.644 42.7831 70.628 43.0471 70.604C43.3191 70.58 43.5831 70.552 43.8391 70.52C44.0951 70.488 44.3551 70.448 44.6191 70.4L44.7511 71.408ZM41.4631 72.704H48.8191V76.436H47.5831V73.7H41.4631V72.704Z" fill="#2D7FF9"/>
</svg>
