<svg width="28" height="36" viewBox="0 0 28 36" fill="none" xmlns="http://www.w3.org/2000/svg">
<path d="M28 14.7273C28 26.1818 14 36 14 36C14 36 0 26.1818 0 14.7273C5.53285e-08 10.8214 1.475 7.07542 4.1005 4.31352C6.72601 1.55162 10.287 0 14 0C17.713 0 21.274 1.55162 23.8995 4.31352C26.525 7.07542 28 10.8214 28 14.7273Z" fill="#FF6F2C"/>
<g clip-path="url(#clip0_765_695)">
<path d="M21.8591 7.37494H18.6578L18.9714 6.12127L20.3186 5.66248C20.6051 5.5651 20.7756 5.26064 20.693 4.96955C20.672 4.89632 20.6363 4.82813 20.5881 4.76911C20.54 4.71008 20.4803 4.66146 20.4128 4.62619C20.3453 4.59091 20.2713 4.56972 20.1953 4.5639C20.1193 4.55808 20.043 4.56775 19.9709 4.59232L18.3185 5.15482C18.2296 5.18517 18.1496 5.23733 18.086 5.30654C18.0223 5.37576 17.9771 5.45982 17.9543 5.55103L17.4983 7.37494H12.8908C12.5881 7.37494 12.3283 7.60768 12.3132 7.91037C12.3095 7.98643 12.3213 8.06243 12.3479 8.13379C12.3745 8.20514 12.4152 8.27036 12.4678 8.32548C12.5203 8.38061 12.5835 8.42449 12.6535 8.45448C12.7235 8.48447 12.7988 8.49993 12.8749 8.49994H12.9716L13.0068 8.80439C13.0151 8.87549 13.0492 8.94107 13.1027 8.98865C13.1561 9.03623 13.2252 9.06249 13.2968 9.06244V9.06244C14.6679 9.06244 15.8864 9.44564 16.8167 10.1706C17.3341 10.5692 17.7535 11.0809 18.0429 11.6665C18.2049 11.9958 18.3245 12.3444 18.3987 12.7039C18.4135 12.774 18.455 12.8355 18.5144 12.8755C18.9926 13.2 19.3454 13.6784 19.5141 14.2312C19.6828 14.7839 19.6573 15.3778 19.4418 15.914C19.4167 15.9761 19.4148 16.0451 19.4365 16.1085C19.5611 16.4654 19.6248 16.8407 19.6249 17.2187C19.6249 18.0041 19.3578 18.7526 18.8726 19.3263C18.5975 19.6538 18.2515 19.9143 17.8608 20.0881C17.7932 20.1179 17.74 20.1731 17.7128 20.2418C17.5668 20.6221 17.3606 20.9766 17.1021 21.2915V21.2915C17.0914 21.3043 17.0845 21.3199 17.0823 21.3365C17.08 21.353 17.0826 21.3699 17.0896 21.385C17.0966 21.4002 17.1078 21.413 17.1218 21.4221C17.1359 21.4311 17.1522 21.436 17.1689 21.436H18.899C19.3225 21.4343 19.7301 21.2741 20.0415 20.9869C20.3528 20.6997 20.5454 20.3063 20.5812 19.8842L21.7835 8.49994H21.8749C21.9512 8.50003 22.0266 8.48463 22.0966 8.45469C22.1667 8.42474 22.23 8.38087 22.2826 8.32574C22.3352 8.2706 22.376 8.20535 22.4027 8.13395C22.4293 8.06255 22.4411 7.98649 22.4374 7.91037C22.4227 7.60768 22.1618 7.37494 21.8591 7.37494Z" fill="white"/>
<path d="M8.82113 15.25C8.93207 15.2495 9.04202 15.271 9.1446 15.3132C9.24719 15.3554 9.34038 15.4176 9.41879 15.4961L9.96406 16.0414C9.97712 16.0544 9.99263 16.0648 10.0097 16.0719C10.0268 16.079 10.0451 16.0826 10.0636 16.0826C10.082 16.0826 10.1003 16.079 10.1174 16.0719C10.1345 16.0648 10.15 16.0544 10.163 16.0414L10.7073 15.4961C10.7857 15.4176 10.8789 15.3554 10.9815 15.3132C11.084 15.271 11.194 15.2495 11.3049 15.25H18.2159C18.2529 15.2504 18.2895 15.2435 18.3238 15.2297C18.358 15.2159 18.3893 15.1955 18.4156 15.1696C18.442 15.1438 18.463 15.113 18.4775 15.079C18.492 15.045 18.4996 15.0085 18.5 14.9716V14.9688C18.4996 14.6447 18.3875 14.3307 18.1826 14.0796C17.9776 13.8286 17.6924 13.6559 17.375 13.5906C17.3462 12.5468 16.918 11.6732 16.1266 11.0594C15.3946 10.4884 14.4166 10.1875 13.2969 10.1875H10.7656C8.36727 10.1875 6.7427 11.5505 6.6875 13.5906C6.37008 13.6559 6.08486 13.8286 5.87994 14.0796C5.67501 14.3307 5.5629 14.6447 5.5625 14.9688V14.9688C5.5625 15.0433 5.59213 15.1149 5.64488 15.1676C5.69762 15.2204 5.76916 15.25 5.84375 15.25H8.82113Z" fill="white"/>
<path d="M11.537 16.375C11.5 16.375 11.4634 16.3822 11.4293 16.3963C11.3951 16.4105 11.3641 16.4312 11.338 16.4573L10.5596 17.236C10.4278 17.3678 10.2489 17.4418 10.0625 17.4418C9.87606 17.4418 9.69725 17.3678 9.56539 17.236L8.78703 16.4573C8.76089 16.4312 8.72987 16.4105 8.69572 16.3963C8.66158 16.3822 8.62499 16.375 8.58805 16.375H6.1482C6.01607 16.3744 5.88799 16.4206 5.78659 16.5053C5.6852 16.59 5.61703 16.7079 5.59414 16.838C5.57302 16.9638 5.56244 17.0912 5.5625 17.2188C5.5625 18.2942 6.30535 19.1703 7.22398 19.1875C7.30941 19.7191 7.51613 20.1993 7.82727 20.5751C8.28746 21.1309 8.95648 21.4375 9.71094 21.4375H14.3516C15.106 21.4375 15.775 21.1309 16.2352 20.5744C16.5464 20.1986 16.7531 19.7184 16.8385 19.1868C17.7571 19.1703 18.5 18.2942 18.5 17.2181C18.5001 17.0905 18.4895 16.9631 18.4684 16.8373C18.4453 16.7073 18.3771 16.5896 18.2757 16.505C18.1743 16.4204 18.0463 16.3744 17.9143 16.375H11.537Z" fill="white"/>
</g>
<defs>
<clipPath id="clip0_765_695">
<rect width="18" height="18" fill="white" transform="translate(5 4)"/>
</clipPath>
</defs>
</svg>
