<svg width="28" height="36" viewBox="0 0 28 36" fill="none" xmlns="http://www.w3.org/2000/svg">
<path d="M28 14.7273C28 26.1818 14 36 14 36C14 36 0 26.1818 0 14.7273C5.53285e-08 10.8214 1.475 7.07542 4.1005 4.31352C6.72601 1.55162 10.287 0 14 0C17.713 0 21.274 1.55162 23.8995 4.31352C26.525 7.07542 28 10.8214 28 14.7273Z" fill="#20D9D2"/>
<path d="M18.8934 15.3133L18.8942 15.3113C19.0768 14.8242 19.1678 14.3133 19.1678 13.7802V13.5396C19.1678 13.0076 19.0772 12.5075 18.8937 12.0416C18.7195 11.5701 18.4453 11.1651 18.0729 10.8295C17.6983 10.4803 17.2245 10.2183 16.66 10.0377C16.1002 9.84349 15.4361 9.75 14.6737 9.75H11.4605C10.8946 9.75 10.4273 9.85309 10.1374 10.1278L10.1373 10.1277L10.1325 10.1325C9.85287 10.4122 9.75 10.8721 9.75 11.4262V21.375C9.75 21.7656 9.88181 22.0953 10.1853 22.303C10.4498 22.4839 10.7582 22.57 11.0997 22.57C11.4412 22.57 11.7496 22.4839 12.0141 22.303C12.3176 22.0953 12.4494 21.7656 12.4494 21.375V17.7588H14.6737C15.4169 17.7588 16.072 17.6587 16.6333 17.4512L16.6333 17.4513L16.6377 17.4495C17.1894 17.2337 17.6588 16.9488 18.0405 16.5917L18.0405 16.5917L18.0435 16.5888C18.4239 16.2207 18.7081 15.7951 18.8934 15.3133ZM15.9499 12.3994L15.9568 12.4046L15.964 12.4093C16.1182 12.509 16.2367 12.6446 16.3207 12.8219C16.4027 12.995 16.4513 13.2355 16.4513 13.5568V13.7458C16.4513 14.4248 16.2586 14.823 15.944 15.0327C15.5874 15.2704 15.0753 15.4031 14.3816 15.4031H12.4494V12.0885H14.5706C14.8646 12.0885 15.1329 12.1158 15.3766 12.1688L15.3766 12.169L15.3869 12.1708C15.618 12.211 15.803 12.2893 15.9499 12.3994Z" fill="white" stroke="white" stroke-width="0.5"/>
</svg>
