<svg width="28" height="36" viewBox="0 0 28 36" fill="none" xmlns="http://www.w3.org/2000/svg">
<path d="M28 14.7273C28 26.1818 14 36 14 36C14 36 0 26.1818 0 14.7273C5.53285e-08 10.8214 1.475 7.07542 4.1005 4.31352C6.72601 1.55162 10.287 0 14 0C17.713 0 21.274 1.55162 23.8995 4.31352C26.525 7.07542 28 10.8214 28 14.7273Z" fill="#8B46FF"/>
<path d="M20.1875 13.1105C19.8329 12.9549 19.4498 12.8747 19.0625 12.875H8.9375C8.55026 12.8746 8.16716 12.9547 7.8125 13.1102V13.1102C7.31124 13.3294 6.8847 13.6899 6.58502 14.1476C6.28533 14.6053 6.12548 15.1404 6.125 15.6875V19.625C6.125 19.7742 6.18426 19.9173 6.28975 20.0227C6.39524 20.1282 6.53832 20.1875 6.6875 20.1875C6.83668 20.1875 6.97976 20.1282 7.08525 20.0227C7.19074 19.9173 7.25 19.7742 7.25 19.625V19.3438C7.25091 19.2694 7.28084 19.1984 7.33338 19.1459C7.38593 19.0933 7.45694 19.0634 7.53125 19.0625H20.4688C20.5431 19.0634 20.6141 19.0933 20.6666 19.1459C20.7192 19.1984 20.7491 19.2694 20.75 19.3438V19.625C20.75 19.7742 20.8093 19.9173 20.9148 20.0227C21.0202 20.1282 21.1633 20.1875 21.3125 20.1875C21.4617 20.1875 21.6048 20.1282 21.7102 20.0227C21.8157 19.9173 21.875 19.7742 21.875 19.625V15.6875C21.8745 15.1405 21.7146 14.6054 21.4149 14.1478C21.1152 13.6902 20.6887 13.3297 20.1875 13.1105V13.1105Z" fill="white"/>
<path d="M18.2188 7.8125H9.78125C9.25911 7.8125 8.75835 8.01992 8.38913 8.38913C8.01992 8.75835 7.8125 9.25911 7.8125 9.78125V12.3125C7.81252 12.3343 7.8176 12.3558 7.82734 12.3753C7.83708 12.3948 7.85122 12.4117 7.86864 12.4248C7.88607 12.4379 7.90629 12.4468 7.92772 12.4507C7.94916 12.4546 7.97121 12.4535 7.99215 12.4475C8.29922 12.3577 8.61756 12.3122 8.9375 12.3125H9.08621C9.12092 12.3127 9.15449 12.3001 9.18045 12.2771C9.20641 12.254 9.22293 12.2222 9.22684 12.1877C9.25752 11.9128 9.38837 11.6589 9.59439 11.4744C9.80042 11.2899 10.0672 11.1878 10.3438 11.1875H12.3125C12.5892 11.1875 12.8563 11.2895 13.0625 11.4741C13.2688 11.6586 13.3998 11.9127 13.4305 12.1877C13.4344 12.2222 13.4509 12.254 13.4769 12.2771C13.5028 12.3001 13.5364 12.3127 13.5711 12.3125H14.431C14.4657 12.3127 14.4993 12.3001 14.5253 12.2771C14.5512 12.254 14.5677 12.2222 14.5716 12.1877C14.6023 11.913 14.733 11.6592 14.9388 11.4748C15.1446 11.2903 15.4111 11.188 15.6875 11.1875H17.6562C17.933 11.1875 18.2 11.2895 18.4063 11.4741C18.6125 11.6586 18.7435 11.9127 18.7742 12.1877C18.7781 12.2222 18.7946 12.254 18.8206 12.2771C18.8466 12.3001 18.8801 12.3127 18.9148 12.3125H19.0625C19.3825 12.3123 19.7008 12.3579 20.0079 12.4479C20.0288 12.4539 20.0509 12.455 20.0724 12.451C20.0938 12.4471 20.1141 12.4382 20.1315 12.4251C20.1489 12.4119 20.1631 12.3949 20.1728 12.3754C20.1825 12.3559 20.1875 12.3343 20.1875 12.3125V9.78125C20.1875 9.25911 19.9801 8.75835 19.6109 8.38913C19.2417 8.01992 18.7409 7.8125 18.2188 7.8125Z" fill="white"/>
</svg>
