<svg width="56" height="56" viewBox="0 0 56 56" fill="none" xmlns="http://www.w3.org/2000/svg">
<g filter="url(#filter0_d_38_1334)">
<rect x="8" y="4" width="40" height="40" rx="20" fill="white" shape-rendering="crispEdges"/>
<rect x="8.25" y="4.25" width="39.5" height="39.5" rx="19.75" stroke="#B5B9BD" stroke-width="0.5" shape-rendering="crispEdges"/>
<path fill-rule="evenodd" clip-rule="evenodd" d="M28 15C23.0294 15 19 19.0294 19 24C19 28.9706 23.0294 33 28 33C32.9706 33 37 28.9706 37 24C37 19.0294 32.9706 15 28 15ZM17 24C17 17.9249 21.9249 13 28 13C34.0751 13 39 17.9249 39 24C39 30.0751 34.0751 35 28 35C21.9249 35 17 30.0751 17 24Z" fill="#6A6A6A"/>
<path fill-rule="evenodd" clip-rule="evenodd" d="M28 13C28.5523 13 29 13.4477 29 14V16C29 16.5523 28.5523 17 28 17C27.4477 17 27 16.5523 27 16V14C27 13.4477 27.4477 13 28 13Z" fill="#6A6A6A"/>
<path fill-rule="evenodd" clip-rule="evenodd" d="M28 31C28.5523 31 29 31.4477 29 32L29 34C29 34.5523 28.5523 35 28 35C27.4477 35 27 34.5523 27 34L27 32C27 31.4477 27.4477 31 28 31Z" fill="#6A6A6A"/>
<path fill-rule="evenodd" clip-rule="evenodd" d="M17 24C17 23.4477 17.4477 23 18 23L20 23C20.5523 23 21 23.4477 21 24C21 24.5523 20.5523 25 20 25L18 25C17.4477 25 17 24.5523 17 24Z" fill="#6A6A6A"/>
<path fill-rule="evenodd" clip-rule="evenodd" d="M35 24C35 23.4477 35.4477 23 36 23L38 23C38.5523 23 39 23.4477 39 24C39 24.5523 38.5523 25 38 25L36 25C35.4477 25 35 24.5523 35 24Z" fill="#6A6A6A"/>
<path d="M29 24C29 24.5523 28.5523 25 28 25C27.4477 25 27 24.5523 27 24C27 23.4477 27.4477 23 28 23C28.5523 23 29 23.4477 29 24Z" fill="#6A6A6A"/>
</g>
<defs>
<filter id="filter0_d_38_1334" x="0" y="0" width="56" height="56" filterUnits="userSpaceOnUse" color-interpolation-filters="sRGB">
<feFlood flood-opacity="0" result="BackgroundImageFix"/>
<feColorMatrix in="SourceAlpha" type="matrix" values="0 0 0 0 0 0 0 0 0 0 0 0 0 0 0 0 0 0 127 0" result="hardAlpha"/>
<feOffset dy="4"/>
<feGaussianBlur stdDeviation="4"/>
<feComposite in2="hardAlpha" operator="out"/>
<feColorMatrix type="matrix" values="0 0 0 0 0 0 0 0 0 0 0 0 0 0 0 0 0 0 0.1 0"/>
<feBlend mode="normal" in2="BackgroundImageFix" result="effect1_dropShadow_38_1334"/>
<feBlend mode="normal" in="SourceGraphic" in2="effect1_dropShadow_38_1334" result="shape"/>
</filter>
</defs>
</svg>
