<svg width="56" height="56" viewBox="0 0 56 56" fill="none" xmlns="http://www.w3.org/2000/svg">
<g filter="url(#filter0_d_57_9418)">
<rect x="8" y="4" width="40" height="40" rx="20" fill="white" shape-rendering="crispEdges"/>
<rect x="8.25" y="4.25" width="39.5" height="39.5" rx="19.75" stroke="#B5B9BD" stroke-width="0.5" shape-rendering="crispEdges"/>
<path d="M24.5874 20.236L27.1849 15.0038C27.5183 14.3321 28.4817 14.3321 28.8151 15.0038L31.4126 20.236L37.2215 21.0802C37.9668 21.1885 38.2638 22.0994 37.7243 22.6219L33.5217 26.6918L34.5135 32.4414C34.6409 33.1798 33.8614 33.7428 33.1945 33.3941L28 30.678L22.8055 33.3941C22.1386 33.7428 21.3591 33.1798 21.4865 32.4414L22.4783 26.6918L18.2758 22.6219C17.7362 22.0994 18.0332 21.1885 18.7785 21.0802L24.5874 20.236Z" fill="#D9D9D9"/>
</g>
<defs>
<filter id="filter0_d_57_9418" x="0" y="0" width="56" height="56" filterUnits="userSpaceOnUse" color-interpolation-filters="sRGB">
<feFlood flood-opacity="0" result="BackgroundImageFix"/>
<feColorMatrix in="SourceAlpha" type="matrix" values="0 0 0 0 0 0 0 0 0 0 0 0 0 0 0 0 0 0 127 0" result="hardAlpha"/>
<feOffset dy="4"/>
<feGaussianBlur stdDeviation="4"/>
<feComposite in2="hardAlpha" operator="out"/>
<feColorMatrix type="matrix" values="0 0 0 0 0 0 0 0 0 0 0 0 0 0 0 0 0 0 0.1 0"/>
<feBlend mode="normal" in2="BackgroundImageFix" result="effect1_dropShadow_57_9418"/>
<feBlend mode="normal" in="SourceGraphic" in2="effect1_dropShadow_57_9418" result="shape"/>
</filter>
</defs>
</svg>
