<svg width="35" height="35" viewBox="0 0 40 40" fill="none" xmlns="http://www.w3.org/2000/svg">
<rect x="0.25" y="0.25" width="39.5" height="39.5" rx="19.75" fill="white"/>
<rect x="0.25" y="0.25" width="39.5" height="39.5" rx="19.75" stroke="#B5B9BD" stroke-width="0.5"/>
<path d="M23 13L17 11M17 27L11.7897 28.7368C11.4012 28.8663 11 28.5771 11 28.1675V13.4325C11 13.1742 11.1653 12.9449 11.4103 12.8632L17 11V27ZM17 27L23 29L17 27ZM17 27V11V27ZM23 29L28.5897 27.1368C28.8347 27.0551 29 26.8258 29 26.5675V11.8325C29 11.4229 28.5988 11.1337 28.2103 11.2633L23 13V29ZM23 29V13V29Z" stroke="#A8A8A8" stroke-width="1.5" stroke-linecap="round" stroke-linejoin="round"/>
</svg>
